<mxfile host="Electron" agent="Mozilla/5.0 (Windows NT 10.0; Win64; x64) AppleWebKit/537.36 (KHTML, like Gecko) draw.io/24.7.5 Chrome/126.0.6478.183 Electron/31.3.0 Safari/537.36" version="24.7.5">
  <diagram name="Page-1" id="1ef-sQJueesoauXnQtK6">
    <mxGraphModel dx="1661" dy="636" grid="1" gridSize="10" guides="1" tooltips="1" connect="1" arrows="1" fold="1" page="1" pageScale="1" pageWidth="850" pageHeight="1100" math="0" shadow="0">
      <root>
        <mxCell id="0" />
        <mxCell id="1" parent="0" />
        <mxCell id="Rel5Wklgm9iBdAPs7mhG-6" value="" style="rounded=1;whiteSpace=wrap;html=1;" vertex="1" parent="1">
          <mxGeometry x="60" y="35" width="970" height="455" as="geometry" />
        </mxCell>
        <mxCell id="Rel5Wklgm9iBdAPs7mhG-7" value="Java Runtime Memory" style="text;html=1;align=center;verticalAlign=middle;resizable=0;points=[];autosize=1;strokeColor=none;fillColor=none;fontStyle=1" vertex="1" parent="1">
          <mxGeometry x="465" y="510" width="140" height="30" as="geometry" />
        </mxCell>
        <mxCell id="Rel5Wklgm9iBdAPs7mhG-8" value="Stack Memory" style="swimlane;whiteSpace=wrap;html=1;" vertex="1" parent="1">
          <mxGeometry x="120" y="100" width="140" height="310" as="geometry" />
        </mxCell>
        <mxCell id="Rel5Wklgm9iBdAPs7mhG-9" value="" style="rounded=0;whiteSpace=wrap;html=1;" vertex="1" parent="Rel5Wklgm9iBdAPs7mhG-8">
          <mxGeometry x="10" y="160" width="120" height="90" as="geometry" />
        </mxCell>
        <mxCell id="Rel5Wklgm9iBdAPs7mhG-10" value="main()" style="text;html=1;align=center;verticalAlign=middle;whiteSpace=wrap;rounded=0;fontStyle=1" vertex="1" parent="Rel5Wklgm9iBdAPs7mhG-8">
          <mxGeometry x="40" y="270" width="60" height="30" as="geometry" />
        </mxCell>
        <mxCell id="Rel5Wklgm9iBdAPs7mhG-11" value="mem&lt;br&gt;&lt;br&gt;obj&lt;br&gt;&lt;br&gt;int i =1&lt;div&gt;&lt;br&gt;&lt;/div&gt;" style="text;html=1;align=center;verticalAlign=middle;whiteSpace=wrap;rounded=0;" vertex="1" parent="Rel5Wklgm9iBdAPs7mhG-8">
          <mxGeometry x="40" y="195" width="60" height="30" as="geometry" />
        </mxCell>
        <mxCell id="Rel5Wklgm9iBdAPs7mhG-14" value="" style="rounded=0;whiteSpace=wrap;html=1;" vertex="1" parent="Rel5Wklgm9iBdAPs7mhG-8">
          <mxGeometry x="10" y="50" width="120" height="60" as="geometry" />
        </mxCell>
        <mxCell id="Rel5Wklgm9iBdAPs7mhG-15" value="foo()" style="text;html=1;align=center;verticalAlign=middle;whiteSpace=wrap;rounded=0;fontStyle=1" vertex="1" parent="Rel5Wklgm9iBdAPs7mhG-8">
          <mxGeometry x="40" y="120" width="60" height="30" as="geometry" />
        </mxCell>
        <mxCell id="Rel5Wklgm9iBdAPs7mhG-16" value="str&lt;br&gt;&lt;br&gt;param" style="text;html=1;align=center;verticalAlign=middle;whiteSpace=wrap;rounded=0;" vertex="1" parent="Rel5Wklgm9iBdAPs7mhG-8">
          <mxGeometry x="40" y="65" width="60" height="30" as="geometry" />
        </mxCell>
        <mxCell id="Rel5Wklgm9iBdAPs7mhG-17" value="" style="ellipse;whiteSpace=wrap;html=1;" vertex="1" parent="1">
          <mxGeometry x="530" y="80" width="445" height="360" as="geometry" />
        </mxCell>
        <mxCell id="Rel5Wklgm9iBdAPs7mhG-18" value="Heap Memory" style="text;html=1;align=center;verticalAlign=middle;whiteSpace=wrap;rounded=0;fontStyle=1" vertex="1" parent="1">
          <mxGeometry x="701.25" y="40" width="102.5" height="30" as="geometry" />
        </mxCell>
        <mxCell id="Rel5Wklgm9iBdAPs7mhG-19" value="" style="rounded=0;whiteSpace=wrap;html=1;" vertex="1" parent="1">
          <mxGeometry x="715" y="130" width="180" height="60" as="geometry" />
        </mxCell>
        <mxCell id="Rel5Wklgm9iBdAPs7mhG-20" value="String pool" style="text;html=1;align=center;verticalAlign=middle;whiteSpace=wrap;rounded=0;fontStyle=1" vertex="1" parent="1">
          <mxGeometry x="760" y="90" width="80" height="30" as="geometry" />
        </mxCell>
        <mxCell id="Rel5Wklgm9iBdAPs7mhG-21" value="" style="rounded=0;whiteSpace=wrap;html=1;" vertex="1" parent="1">
          <mxGeometry x="730" y="160" width="150" height="25" as="geometry" />
        </mxCell>
        <mxCell id="Rel5Wklgm9iBdAPs7mhG-22" value="java.lang.Object@45454f" style="text;html=1;align=center;verticalAlign=middle;whiteSpace=wrap;rounded=0;" vertex="1" parent="1">
          <mxGeometry x="772.5" y="160" width="65" height="30" as="geometry" />
        </mxCell>
        <mxCell id="Rel5Wklgm9iBdAPs7mhG-23" value="Memory" style="ellipse;whiteSpace=wrap;html=1;fontStyle=1" vertex="1" parent="1">
          <mxGeometry x="581.25" y="230" width="120" height="80" as="geometry" />
        </mxCell>
        <mxCell id="Rel5Wklgm9iBdAPs7mhG-24" value="Object" style="ellipse;whiteSpace=wrap;html=1;fontStyle=1" vertex="1" parent="1">
          <mxGeometry x="730" y="320" width="120" height="80" as="geometry" />
        </mxCell>
        <mxCell id="Rel5Wklgm9iBdAPs7mhG-31" value="" style="endArrow=classic;html=1;rounded=0;entryX=0;entryY=0.75;entryDx=0;entryDy=0;exitX=0.75;exitY=0;exitDx=0;exitDy=0;" edge="1" parent="1" source="Rel5Wklgm9iBdAPs7mhG-16" target="Rel5Wklgm9iBdAPs7mhG-21">
          <mxGeometry width="50" height="50" relative="1" as="geometry">
            <mxPoint x="490" y="400" as="sourcePoint" />
            <mxPoint x="540" y="350" as="targetPoint" />
          </mxGeometry>
        </mxCell>
        <mxCell id="Rel5Wklgm9iBdAPs7mhG-33" value="" style="endArrow=classic;html=1;rounded=0;exitX=0.75;exitY=1;exitDx=0;exitDy=0;entryX=0;entryY=0.5;entryDx=0;entryDy=0;" edge="1" parent="1" source="Rel5Wklgm9iBdAPs7mhG-16" target="Rel5Wklgm9iBdAPs7mhG-24">
          <mxGeometry width="50" height="50" relative="1" as="geometry">
            <mxPoint x="490" y="400" as="sourcePoint" />
            <mxPoint x="540" y="350" as="targetPoint" />
          </mxGeometry>
        </mxCell>
        <mxCell id="Rel5Wklgm9iBdAPs7mhG-34" value="" style="endArrow=classic;html=1;rounded=0;entryX=0;entryY=0.5;entryDx=0;entryDy=0;exitX=0.667;exitY=0.222;exitDx=0;exitDy=0;exitPerimeter=0;" edge="1" parent="1" source="Rel5Wklgm9iBdAPs7mhG-9" target="Rel5Wklgm9iBdAPs7mhG-23">
          <mxGeometry width="50" height="50" relative="1" as="geometry">
            <mxPoint x="490" y="400" as="sourcePoint" />
            <mxPoint x="540" y="350" as="targetPoint" />
          </mxGeometry>
        </mxCell>
        <mxCell id="Rel5Wklgm9iBdAPs7mhG-36" value="" style="endArrow=classic;html=1;rounded=0;entryX=0.003;entryY=0.638;entryDx=0;entryDy=0;entryPerimeter=0;" edge="1" parent="1" source="Rel5Wklgm9iBdAPs7mhG-11" target="Rel5Wklgm9iBdAPs7mhG-24">
          <mxGeometry width="50" height="50" relative="1" as="geometry">
            <mxPoint x="490" y="400" as="sourcePoint" />
            <mxPoint x="540" y="350" as="targetPoint" />
          </mxGeometry>
        </mxCell>
        <mxCell id="Rel5Wklgm9iBdAPs7mhG-38" value="" style="endArrow=classic;html=1;rounded=0;entryX=1;entryY=1;entryDx=0;entryDy=0;" edge="1" parent="1" target="Rel5Wklgm9iBdAPs7mhG-22">
          <mxGeometry width="50" height="50" relative="1" as="geometry">
            <mxPoint x="820" y="320" as="sourcePoint" />
            <mxPoint x="870" y="270" as="targetPoint" />
          </mxGeometry>
        </mxCell>
        <mxCell id="Rel5Wklgm9iBdAPs7mhG-41" value="&lt;h1 style=&quot;margin-top: 0px;&quot;&gt;&lt;div style=&quot;color: #cccccc;background-color: #1f1f1f;font-family: Consolas, &#39;Courier New&#39;, monospace;font-weight: normal;font-size: 14px;line-height: 19px;white-space: pre;&quot;&gt;&lt;div&gt;&amp;nbsp; &amp;nbsp; &lt;/div&gt;&lt;div&gt;&lt;span style=&quot;color: #569cd6;&quot;&gt;&lt;br&gt;&lt;/span&gt;&lt;/div&gt;&lt;div&gt;&lt;span style=&quot;color: #569cd6;&quot;&gt;    public&lt;/span&gt; &lt;span style=&quot;color: #569cd6;&quot;&gt;static&lt;/span&gt; &lt;span style=&quot;color: #4ec9b0;&quot;&gt;void&lt;/span&gt; &lt;span style=&quot;color: #dcdcaa;&quot;&gt;main&lt;/span&gt;(&lt;span style=&quot;color: #4ec9b0;&quot;&gt;String&lt;/span&gt;[] &lt;span style=&quot;color: #9cdcfe;&quot;&gt;args&lt;/span&gt;) { &lt;span style=&quot;color: #6a9955;&quot;&gt;// Line 1                                                                 &lt;/span&gt;&lt;/div&gt;&lt;div&gt;&amp;nbsp; &amp;nbsp; &amp;nbsp; &amp;nbsp; &lt;span style=&quot;color: #4ec9b0;&quot;&gt;int&lt;/span&gt; &lt;span style=&quot;color: #9cdcfe;&quot;&gt;i&lt;/span&gt; &lt;span style=&quot;color: #d4d4d4;&quot;&gt;=&lt;/span&gt; &lt;span style=&quot;color: #b5cea8;&quot;&gt;1&lt;/span&gt;; &lt;span style=&quot;color: #6a9955;&quot;&gt;// Line 2&lt;/span&gt;&lt;/div&gt;&lt;div&gt;&amp;nbsp; &amp;nbsp; &amp;nbsp; &amp;nbsp; &lt;span style=&quot;color: #4ec9b0;&quot;&gt;Object&lt;/span&gt; &lt;span style=&quot;color: #9cdcfe;&quot;&gt;obj&lt;/span&gt; &lt;span style=&quot;color: #d4d4d4;&quot;&gt;=&lt;/span&gt; &lt;span style=&quot;color: #c586c0;&quot;&gt;new&lt;/span&gt; &lt;span style=&quot;color: #dcdcaa;&quot;&gt;Object&lt;/span&gt;(); &lt;span style=&quot;color: #6a9955;&quot;&gt;// Line 3&lt;/span&gt;&lt;/div&gt;&lt;div&gt;&amp;nbsp; &amp;nbsp; &amp;nbsp; &amp;nbsp; &lt;span style=&quot;color: #4ec9b0;&quot;&gt;MemoryConcept&lt;/span&gt; &lt;span style=&quot;color: #9cdcfe;&quot;&gt;mem&lt;/span&gt; &lt;span style=&quot;color: #d4d4d4;&quot;&gt;=&lt;/span&gt; &lt;span style=&quot;color: #c586c0;&quot;&gt;new&lt;/span&gt; &lt;span style=&quot;color: #dcdcaa;&quot;&gt;MemoryConcept&lt;/span&gt;(); &lt;span style=&quot;color: #6a9955;&quot;&gt;// Line 4&lt;/span&gt;&lt;/div&gt;&lt;div&gt;&amp;nbsp; &amp;nbsp; &amp;nbsp; &amp;nbsp; &lt;span style=&quot;color: #9cdcfe;&quot;&gt;mem&lt;/span&gt;.&lt;span style=&quot;color: #dcdcaa;&quot;&gt;foo&lt;/span&gt;(&lt;span style=&quot;color: #9cdcfe;&quot;&gt;obj&lt;/span&gt;); &lt;span style=&quot;color: #6a9955;&quot;&gt;// Line 5&lt;/span&gt;&lt;/div&gt;&lt;div&gt;&amp;nbsp; &amp;nbsp; } &lt;span style=&quot;color: #6a9955;&quot;&gt;// Line 9&lt;/span&gt;&lt;/div&gt;&lt;div&gt;&amp;nbsp; &amp;nbsp; &lt;span style=&quot;color: #569cd6;&quot;&gt;private&lt;/span&gt; &lt;span style=&quot;color: #4ec9b0;&quot;&gt;void&lt;/span&gt; &lt;span style=&quot;color: #dcdcaa;&quot;&gt;foo&lt;/span&gt;(&lt;span style=&quot;color: #4ec9b0;&quot;&gt;Object&lt;/span&gt; &lt;span style=&quot;color: #9cdcfe;&quot;&gt;param&lt;/span&gt;) { &lt;span style=&quot;color: #6a9955;&quot;&gt;// Line 6&lt;/span&gt;&lt;/div&gt;&lt;div&gt;&amp;nbsp; &amp;nbsp; &amp;nbsp; &amp;nbsp; &lt;span style=&quot;color: #4ec9b0;&quot;&gt;String&lt;/span&gt; &lt;span style=&quot;color: #9cdcfe;&quot;&gt;str&lt;/span&gt; &lt;span style=&quot;color: #d4d4d4;&quot;&gt;=&lt;/span&gt; &lt;span style=&quot;color: #9cdcfe;&quot;&gt;param&lt;/span&gt;.&lt;span style=&quot;color: #dcdcaa;&quot;&gt;toString&lt;/span&gt;(); &lt;span style=&quot;color: #6a9955;&quot;&gt;// Line 7&lt;/span&gt;&lt;/div&gt;&lt;div&gt;&amp;nbsp; &amp;nbsp; &amp;nbsp; &amp;nbsp; &lt;span style=&quot;color: #4ec9b0;&quot;&gt;System&lt;/span&gt;.&lt;span style=&quot;color: #4fc1ff;&quot;&gt;out&lt;/span&gt;.&lt;span style=&quot;color: #dcdcaa;&quot;&gt;println&lt;/span&gt;(&lt;span style=&quot;color: #9cdcfe;&quot;&gt;str&lt;/span&gt;);&lt;/div&gt;&lt;div&gt;&amp;nbsp; &amp;nbsp; }&lt;span style=&quot;color: #6a9955;&quot;&gt;// Line 8&lt;/span&gt;&lt;/div&gt;&lt;div&gt;&lt;span style=&quot;color: #6a9955;&quot;&gt;&lt;br&gt;&lt;/span&gt;&lt;/div&gt;&lt;div&gt;&lt;span style=&quot;color: #6a9955;&quot;&gt;&lt;br&gt;&lt;/span&gt;&lt;/div&gt;&lt;div&gt;&lt;span style=&quot;color: #6a9955;&quot;&gt;&lt;br&gt;&lt;/span&gt;&lt;/div&gt;&lt;/div&gt;&lt;/h1&gt;" style="text;html=1;whiteSpace=wrap;overflow=hidden;rounded=0;" vertex="1" parent="1">
          <mxGeometry x="100" y="577" width="730" height="210" as="geometry" />
        </mxCell>
      </root>
    </mxGraphModel>
  </diagram>
</mxfile>
